<svg xmlns="http://www.w3.org/2000/svg" fill="none" viewBox="0 0 283 64"><path fill="#000" d="M141 0c11 0 19 8 19 19s-8 19-19 19-19-8-19-19 8-19 19-19zm-45.5 0c11 0 19 8 19 19s-8 19-19 19-19-8-19-19 8-19 19-19zm91 0c11 0 19 8 19 19s-8 19-19 19-19-8-19-19 8-19 19-19zM0 0v19h19V0H0zm264.5 0c11 0 19 8 19 19s-8 19-19 19-19-8-19-19 8-19 19-19zM283 0v19h-19V0h19zM0 22.5v19h19v-19H0zm264.5 0c11 0 19 8 19 19s-8 19-19 19-19-8-19-19 8-19 19-19zM283 22.5v19h-19v-19h19zM0 45v19h19V45H0zm45.5 0c11 0 19 8 19 19s-8 19-19 19-19-8-19-19 8-19 19-19zm91 0c11 0 19 8 19 19s-8 19-19 19-19-8-19-19 8-19 19-19zm91 0c11 0 19 8 19 19s-8 19-19 19-19-8-19-19 8-19 19-19z"/></svg>

